<svg width="155" height="155" viewBox="0 0 155 155" fill="none" xmlns="http://www.w3.org/2000/svg">
<path d="M72.5647 31.2263C71.7573 31.2263 70.9645 30.836 70.4837 30.1137C68.1981 26.6859 65.4093 24.7078 61.9624 24.0708C54.5021 22.6849 46.6077 28.2083 46.532 28.2646C45.4074 29.065 43.8483 28.7989 43.0485 27.6767C42.2508 26.5545 42.5093 24.9981 43.6315 24.1977C44.0218 23.9174 53.2848 17.3989 62.8409 19.1526C67.6323 20.0312 71.6035 22.7851 74.6412 27.3425C75.4071 28.4917 75.0974 30.0408 73.9482 30.8067C73.5211 31.0894 73.0403 31.2263 72.5647 31.2263Z" fill="#6B676E"/>
<path d="M82.5532 31.2263C83.3606 31.2263 84.1535 30.836 84.6342 30.1137C86.9199 26.6859 89.7086 24.7078 93.1556 24.0708C100.616 22.6849 108.51 28.2083 108.586 28.2646C109.711 29.065 111.27 28.7989 112.069 27.6767C112.867 26.5545 112.609 24.9981 111.486 24.1977C111.096 23.9174 101.833 17.3989 92.277 19.1526C87.4857 20.0312 83.5144 22.7851 80.4768 27.3425C79.7109 28.4917 80.0206 30.0408 81.1697 30.8067C81.5969 31.0894 82.0773 31.2263 82.5532 31.2263Z" fill="#6B676E"/>
<path d="M95.0454 41.2186C95.0454 32.9404 87.2164 26.23 77.5586 26.23C67.9008 26.23 60.0718 32.9407 60.0718 41.2186" fill="#585661"/>
<path d="M77.557 136.147C95.4927 136.147 110.032 118.252 110.032 96.1772C110.032 74.1025 95.4927 56.2075 77.557 56.2075C59.6213 56.2075 45.0815 74.1025 45.0815 96.1772C45.0815 118.252 59.6213 136.147 77.557 136.147Z" fill="#FFD750"/>
<path d="M49.2477 76.628C47.4198 80.629 46.1574 85.0592 45.5396 89.7615C50.6337 92.0823 60.1126 95.2362 77.5576 95.2362C95.0047 95.2362 104.484 92.0811 109.577 89.7603C108.96 85.0583 107.697 80.6284 105.869 76.6274C99.9139 78.432 90.9717 80.1046 77.5579 80.1046C64.145 80.1043 55.2028 78.4326 49.2477 76.628Z" fill="#6B676E"/>
<path d="M45.3931 101.41C46.1317 108.347 48.3129 114.709 51.5582 120.052C57.1891 121.957 65.4443 123.656 77.5573 123.656C89.6724 123.656 97.9289 121.956 103.559 120.051C106.804 114.707 108.985 108.346 109.724 101.409C104.031 103.879 94.2585 106.769 77.5573 106.769C60.8582 106.769 51.086 103.879 45.3931 101.41Z" fill="#6B676E"/>
<path d="M98.7926 54.9575C98.7926 63.9253 94.498 71.1952 77.5585 71.1952C60.619 71.1952 56.3245 63.9253 56.3245 54.9575C56.3245 45.9896 60.619 38.7197 77.5585 38.7197C94.498 38.7197 98.7926 45.9899 98.7926 54.9575Z" fill="#585661"/>
<path d="M100.042 48.7122C100.042 55.6103 95.4946 61.2027 77.5586 61.2027C59.6225 61.2027 55.0754 55.6103 55.0754 48.7122C55.0754 41.8141 59.6225 36.2217 77.5586 36.2217C95.4946 36.2217 100.042 41.8141 100.042 48.7122Z" fill="#6B676E"/>
<path d="M142.509 78.6897C102.852 41.8424 94.9282 39.5005 94.9282 39.5005C100.757 46.3704 98.5186 51.8996 97.5435 56.2066C92.5472 78.2731 101.915 91.8047 107.536 96.1762C119.563 105.531 155 117.098 155 108.667C155 95.5516 149.788 85.4528 142.509 78.6897Z" fill="#FFEBD2"/>
<path d="M146.401 82.9659C145.183 81.4335 143.899 79.9816 142.509 78.6901C141.705 77.943 140.935 77.2325 140.156 76.5135C132.055 74.7594 121.162 72.4084 115.553 71.2504C109.242 64.3769 101.552 56.6535 98.2313 53.3501C98.0785 54.0231 97.9144 54.6733 97.76 55.2979C97.6885 55.5924 97.6059 55.9291 97.5432 56.2067C97.315 57.2151 97.1479 58.1863 96.978 59.159C106.526 68.7402 118.593 81.4078 120.29 84.8032C121.213 86.6493 124.677 97.466 126.452 105.936C126.457 105.937 126.461 105.939 126.465 105.94C128.271 106.633 130.094 107.288 131.901 107.886L131.902 107.886C130.28 98.4532 125.916 84.8825 124.759 82.5685C124.189 81.4278 122.851 79.6428 121.075 77.5101C130.248 79.447 140.938 81.768 146.196 82.9139C146.265 82.9308 146.332 82.9487 146.401 82.9659Z" fill="#FFDEB7"/>
<path d="M12.4905 78.6897C52.148 41.8424 60.0718 39.5005 60.0718 39.5005C54.2429 46.3704 56.4813 51.8996 57.4565 56.2066C62.4528 78.2731 53.0847 91.8047 47.4641 96.1762C35.4365 105.531 0 117.098 0 108.667C0 95.5516 5.21126 85.4528 12.4905 78.6897Z" fill="#FFEBD2"/>
<path d="M8.59912 82.9659C9.81672 81.4335 11.1003 79.9816 12.4905 78.6901C13.2948 77.943 14.065 77.2325 14.8433 76.5135C22.9448 74.7594 33.8374 72.4084 39.4465 71.2504C45.7579 64.3769 53.4479 56.6535 56.7683 53.3501C56.9212 54.0231 57.0853 54.6733 57.2397 55.2979C57.3111 55.5924 57.3937 55.9291 57.4564 56.2067C57.6847 57.2151 57.8518 58.1863 58.0216 59.159C48.4737 68.7402 36.4067 81.4078 34.7099 84.8032C33.7869 86.6493 30.323 97.466 28.5472 105.936C28.5429 105.937 28.5387 105.939 28.5344 105.94C26.7286 106.633 24.9056 107.288 23.0983 107.886L23.0973 107.886C24.7197 98.4532 29.0839 84.8825 30.241 82.5685C30.811 81.4278 32.1482 79.6428 33.9243 77.5101C24.7512 79.447 14.062 81.768 8.80377 82.9139C8.73505 82.9308 8.66784 82.9487 8.59912 82.9659Z" fill="#FFDEB7"/>
</svg>
