<svg xmlns="http://www.w3.org/2000/svg" xmlns:xlink="http://www.w3.org/1999/xlink" width="1000" zoomAndPan="magnify" viewBox="0 0 750 599.999999" height="800" preserveAspectRatio="xMidYMid meet" version="1.0"><path fill="#e2c2a7" d="M 208.195312 350.847656 C 200.992188 356.667969 199.859375 367.320312 205.675781 374.519531 L 205.71875 374.570312 L 205.757812 374.621094 C 211.578125 381.824219 222.230469 382.957031 229.433594 377.136719 L 652.734375 49.726562 C 659.9375 43.90625 654.128906 24.292969 648.308594 17.089844 L 648.265625 17.042969 L 648.230469 16.988281 C 642.410156 9.789062 624.457031 -0.0117188 617.253906 5.804688 L 208.195312 350.847656 " fill-opacity="1" fill-rule="nonzero"/><path fill="#d5a78c" d="M 208.195312 350.847656 C 200.992188 356.667969 199.859375 367.320312 205.675781 374.519531 L 205.71875 374.570312 L 205.757812 374.621094 L 206 374.890625 L 613.617188 31.070312 C 620.820312 25.25 638.773438 35.050781 644.589844 42.257812 L 644.628906 42.304688 L 644.667969 42.355469 C 646.503906 44.625 648.332031 48.121094 649.753906 52.03125 L 652.734375 49.726562 C 659.9375 43.90625 654.128906 24.292969 648.308594 17.089844 L 648.265625 17.042969 L 648.230469 16.988281 C 642.410156 9.789062 624.457031 -0.0117188 617.253906 5.804688 L 208.195312 350.847656 " fill-opacity="1" fill-rule="nonzero"/><path fill="#c9957c" d="M 208.195312 350.847656 C 200.992188 356.667969 199.859375 367.320312 205.675781 374.519531 L 205.71875 374.570312 L 205.757812 374.621094 L 206 374.890625 L 207.96875 373.230469 C 207.3125 367.667969 209.414062 361.882812 214.070312 358.121094 L 623.132812 13.078125 C 629.277344 8.113281 643.234375 14.527344 650.816406 20.992188 C 650.007812 19.488281 649.160156 18.144531 648.308594 17.089844 L 648.265625 17.042969 L 648.230469 16.988281 C 642.410156 9.789062 624.457031 -0.0117188 617.253906 5.804688 L 208.195312 350.847656 " fill-opacity="1" fill-rule="nonzero"/><path fill="#fde8cc" d="M 479.117188 170.023438 C 481.023438 169.742188 482.910156 168.390625 484.433594 167.175781 C 486.222656 165.742188 488.007812 164.289062 489.78125 162.832031 C 493.777344 159.554688 497.675781 156.175781 501.59375 152.816406 C 506.800781 148.34375 512.226562 144.140625 517.574219 139.835938 L 517.738281 139.707031 C 532.335938 127.941406 547.179688 116.480469 562.230469 105.316406 C 569.78125 99.71875 577.378906 94.1875 585.027344 88.734375 C 585.640625 88.296875 586.253906 87.859375 586.863281 87.421875 C 595.984375 80.902344 605.183594 74.371094 614.238281 67.75 C 620.402344 63.234375 627.707031 56.898438 627.347656 50.882812 C 627.066406 46.179688 622.925781 42.78125 617.304688 44.441406 C 608.039062 47.175781 597.832031 57.855469 590.441406 64.699219 C 566.023438 87.28125 543.816406 106.179688 518.363281 127.734375 C 509.308594 135.398438 497.285156 145.113281 488.339844 152.636719 C 485.980469 154.625 483.515625 156.488281 481.175781 158.496094 C 478.769531 160.5625 475.875 163.011719 474.988281 165.65625 C 474.261719 167.820312 475.667969 169.699219 477.769531 170.027344 C 478.21875 170.097656 478.671875 170.089844 479.117188 170.023438 " fill-opacity="1" fill-rule="nonzero"/><path fill="#f5821d" d="M 252.371094 251.398438 C 265.113281 241.101562 294.152344 255.914062 317.230469 284.480469 C 340.308594 313.046875 348.6875 344.550781 335.945312 354.847656 C 323.203125 365.140625 294.164062 350.328125 271.085938 321.761719 C 248.007812 293.195312 239.628906 261.691406 252.371094 251.398438 " fill-opacity="1" fill-rule="nonzero"/><path fill="#f7912f" d="M 250.109375 267.832031 C 262.851562 257.535156 291.894531 272.347656 314.96875 300.914062 C 328.996094 318.277344 337.578125 336.714844 339.304688 350.828125 C 346.710938 337.824219 337.835938 309.992188 317.230469 284.480469 C 294.152344 255.914062 265.113281 241.101562 252.371094 251.398438 C 247.371094 255.433594 245.636719 262.742188 246.75 271.851562 C 247.636719 270.296875 248.746094 268.933594 250.109375 267.832031 " fill-opacity="1" fill-rule="nonzero"/><path fill="#c95022" d="M 252.371094 251.398438 C 253.496094 250.1875 254.898438 249.210938 256.429688 248.441406 C 257.976562 247.679688 259.667969 247.265625 261.375 246.957031 C 264.808594 246.417969 268.320312 246.714844 271.691406 247.355469 C 278.433594 248.78125 284.742188 251.582031 290.566406 255.027344 C 302.222656 261.972656 312.195312 271.300781 320.660156 281.710938 C 329.066406 292.164062 336.089844 303.878906 340.433594 316.734375 C 342.578125 323.152344 343.992188 329.914062 343.964844 336.808594 C 343.886719 340.238281 343.433594 343.726562 342.1875 346.976562 C 341.523438 348.582031 340.761719 350.144531 339.691406 351.496094 C 338.613281 352.835938 337.367188 354 335.945312 354.847656 C 338.167969 352.378906 339.375 349.386719 339.828125 346.332031 C 340.269531 343.265625 340.175781 340.152344 339.644531 337.082031 C 338.722656 330.929688 336.519531 324.980469 333.972656 319.246094 C 328.777344 307.765625 321.722656 297.125 313.800781 287.25 C 305.824219 277.421875 296.898438 268.285156 286.765625 260.796875 C 281.695312 257.097656 276.339844 253.695312 270.519531 251.503906 C 267.625 250.335938 264.601562 249.597656 261.511719 249.382812 C 258.425781 249.1875 255.246094 249.738281 252.371094 251.398438 " fill-opacity="1" fill-rule="nonzero"/><path fill="#f5821d" d="M 216.71875 261.296875 C 232.476562 248.570312 268.09375 266.527344 296.277344 301.410156 C 324.457031 336.292969 334.527344 374.890625 318.773438 387.621094 C 303.015625 400.351562 267.398438 382.390625 239.214844 347.507812 C 211.03125 312.625 200.960938 274.027344 216.71875 261.296875 " fill-opacity="1" fill-rule="nonzero"/><path fill="#f7912f" d="M 215.4375 283.820312 C 231.195312 271.089844 266.816406 289.050781 294.996094 323.929688 C 310.742188 343.421875 320.828125 364.066406 323.921875 380.714844 C 331.292969 364.003906 320.460938 331.347656 296.277344 301.410156 C 268.09375 266.527344 232.476562 248.570312 216.71875 261.296875 C 209.761719 266.914062 207.847656 277.578125 210.289062 290.726562 C 211.507812 287.96875 213.207031 285.625 215.4375 283.820312 " fill-opacity="1" fill-rule="nonzero"/><path fill="#c95022" d="M 216.71875 261.296875 C 218.132812 259.863281 219.855469 258.707031 221.726562 257.800781 C 223.613281 256.910156 225.660156 256.414062 227.730469 256.058594 C 231.890625 255.457031 236.140625 255.8125 240.222656 256.628906 C 248.398438 258.386719 256.042969 261.851562 263.097656 266.082031 C 277.277344 274.542969 289.386719 285.960938 299.703125 298.640625 C 309.9375 311.382812 318.558594 325.625 323.855469 341.265625 C 326.503906 349.054688 328.292969 357.257812 328.289062 365.621094 C 328.230469 369.785156 327.679688 374.015625 326.214844 377.957031 C 325.433594 379.90625 324.515625 381.804688 323.25 383.460938 C 321.96875 385.097656 320.476562 386.542969 318.773438 387.621094 C 321.566406 384.691406 323.179688 381.042969 323.863281 377.289062 C 324.519531 373.519531 324.519531 369.664062 323.964844 365.863281 C 323.488281 362.058594 322.617188 358.289062 321.460938 354.605469 C 320.304688 350.921875 318.992188 347.277344 317.429688 343.726562 C 311.1875 329.511719 302.613281 316.328125 292.847656 304.179688 C 283.03125 292.070312 271.941406 280.921875 259.355469 271.824219 C 253.03125 267.371094 246.335938 263.332031 239.085938 260.78125 C 235.480469 259.441406 231.714844 258.636719 227.886719 258.484375 C 224.070312 258.363281 220.167969 259.175781 216.71875 261.296875 " fill-opacity="1" fill-rule="nonzero"/><path fill="#f5821d" d="M 190.394531 274.046875 C 206.148438 261.316406 243.324219 281.199219 273.421875 318.457031 C 303.519531 355.710938 315.144531 396.234375 299.390625 408.964844 C 283.632812 421.691406 246.457031 401.808594 216.359375 364.550781 C 186.261719 327.296875 174.636719 286.773438 190.394531 274.046875 " fill-opacity="1" fill-rule="nonzero"/><path fill="#f7912f" d="M 185.832031 295.933594 C 201.589844 283.203125 238.761719 303.082031 268.859375 340.335938 C 287.816406 363.804688 299.4375 388.550781 301.511719 406.851562 C 313.929688 392.203125 302.027344 353.863281 273.421875 318.457031 C 243.324219 281.199219 206.148438 261.316406 190.394531 274.046875 C 184.558594 278.757812 182.488281 287.289062 183.707031 298.046875 C 184.355469 297.277344 185.050781 296.558594 185.832031 295.933594 " fill-opacity="1" fill-rule="nonzero"/><path fill="#c95022" d="M 190.394531 274.046875 C 193.394531 271.023438 197.773438 269.34375 202.148438 269.003906 C 206.558594 268.570312 210.964844 269.25 215.207031 270.277344 C 223.683594 272.503906 231.550781 276.414062 238.835938 281.042969 C 246.179688 285.617188 252.933594 291.027344 259.261719 296.851562 C 262.441406 299.757812 265.441406 302.839844 268.398438 305.957031 C 271.328125 309.101562 274.113281 312.371094 276.847656 315.683594 C 279.519531 319.050781 282.121094 322.46875 284.589844 325.984375 C 287.019531 329.535156 289.394531 333.121094 291.574219 336.832031 C 295.933594 344.25 299.816406 351.984375 302.742188 360.125 C 305.734375 368.222656 307.90625 376.730469 308.296875 385.492188 C 308.410156 389.855469 308.144531 394.308594 306.792969 398.527344 C 305.539062 402.734375 302.976562 406.667969 299.390625 408.964844 C 302.335938 405.886719 303.910156 401.972656 304.414062 397.980469 C 304.964844 393.984375 304.699219 389.910156 303.992188 385.921875 C 303.332031 381.925781 302.273438 377.980469 300.933594 374.121094 C 299.597656 370.269531 298.109375 366.457031 296.378906 362.742188 C 289.472656 347.867188 280.292969 334.054688 269.992188 321.222656 C 259.621094 308.449219 248.046875 296.570312 234.953125 286.695312 C 228.378906 281.835938 221.4375 277.367188 213.890625 274.378906 C 210.136719 272.847656 206.207031 271.734375 202.183594 271.4375 C 198.175781 271.089844 194.015625 271.8125 190.394531 274.046875 " fill-opacity="1" fill-rule="nonzero"/><path fill="#f5821d" d="M 154.410156 291.757812 C 171.742188 277.753906 212.992188 300.0625 246.539062 341.59375 C 280.089844 383.117188 293.234375 428.132812 275.902344 442.136719 C 258.570312 456.140625 217.324219 433.824219 183.773438 392.300781 C 150.222656 350.773438 137.078125 305.757812 154.410156 291.757812 " fill-opacity="1" fill-rule="nonzero"/><path fill="#f7912f" d="M 147.445312 311.847656 C 164.777344 297.84375 206.023438 320.152344 239.574219 361.683594 C 262.816406 390.449219 276.253906 420.886719 276.558594 441.535156 C 292.855469 426.90625 279.636719 382.558594 246.539062 341.59375 C 212.992188 300.0625 171.742188 277.753906 154.410156 291.757812 C 149.085938 296.058594 146.648438 303.292969 146.785156 312.445312 C 147.007812 312.25 147.210938 312.03125 147.445312 311.847656 " fill-opacity="1" fill-rule="nonzero"/><path fill="#c95022" d="M 154.410156 291.757812 C 157.78125 288.441406 162.671875 286.660156 167.515625 286.382812 C 172.398438 285.984375 177.257812 286.828125 181.9375 288.03125 C 191.285156 290.621094 199.941406 295.050781 207.972656 300.238281 C 216.058594 305.382812 223.515625 311.417969 230.507812 317.902344 C 234.019531 321.136719 237.335938 324.5625 240.609375 328.027344 C 243.851562 331.519531 246.9375 335.148438 249.96875 338.820312 C 252.929688 342.550781 255.820312 346.339844 258.5625 350.234375 C 261.261719 354.164062 263.910156 358.132812 266.339844 362.238281 C 271.203125 370.441406 275.550781 378.988281 278.875 387.984375 C 282.261719 396.925781 284.773438 406.324219 285.339844 416.007812 C 285.53125 420.835938 285.332031 425.765625 283.914062 430.457031 C 282.621094 435.132812 279.855469 439.539062 275.902344 442.136719 C 279.207031 438.757812 280.980469 434.386719 281.527344 429.933594 C 282.148438 425.476562 281.824219 420.921875 281.035156 416.472656 C 280.296875 412.015625 279.105469 407.617188 277.617188 403.316406 C 276.121094 399.015625 274.453125 394.769531 272.519531 390.628906 C 264.820312 374.050781 254.585938 358.660156 243.113281 344.363281 C 231.554688 330.128906 218.65625 316.890625 204.066406 305.875 C 196.738281 300.457031 189 295.464844 180.585938 292.117188 C 176.398438 290.417969 172.015625 289.144531 167.527344 288.816406 C 163.050781 288.414062 158.410156 289.230469 154.410156 291.757812 " fill-opacity="1" fill-rule="nonzero"/><path fill="#f5821d" d="M 125.472656 315.132812 C 142.804688 301.128906 184.054688 323.445312 217.601562 364.96875 C 251.152344 406.496094 264.296875 451.511719 246.964844 465.511719 C 229.632812 479.519531 188.382812 457.207031 154.835938 415.679688 C 121.285156 374.152344 108.140625 329.140625 125.472656 315.132812 " fill-opacity="1" fill-rule="nonzero"/><path fill="#f7912f" d="M 121.40625 344.109375 C 138.738281 330.109375 179.988281 352.421875 213.535156 393.945312 C 233.035156 418.085938 245.628906 443.394531 249.359375 463.113281 C 262.878906 446.90625 249.4375 404.378906 217.601562 364.96875 C 184.054688 323.445312 142.804688 301.128906 125.472656 315.132812 C 118.214844 321 116.320312 332.304688 119.011719 346.511719 C 119.734375 345.640625 120.523438 344.824219 121.40625 344.109375 " fill-opacity="1" fill-rule="nonzero"/><path fill="#f5821d" d="M 105.84375 350.871094 C 121.601562 338.140625 157.53125 356.484375 186.097656 391.84375 C 214.664062 427.203125 225.046875 466.183594 209.289062 478.914062 C 193.53125 491.644531 157.601562 473.300781 129.035156 437.941406 C 100.46875 402.582031 90.085938 363.601562 105.84375 350.871094 " fill-opacity="1" fill-rule="nonzero"/><path fill="#f7912f" d="M 111.53125 359.960938 C 121.992188 351.503906 145.855469 363.6875 164.824219 387.167969 C 183.792969 410.648438 190.6875 436.535156 180.226562 444.988281 C 169.761719 453.441406 145.902344 441.261719 126.933594 417.78125 C 107.960938 394.300781 101.066406 368.414062 111.53125 359.960938 " fill-opacity="1" fill-rule="nonzero"/><path fill="#c95022" d="M 105.84375 350.871094 C 107.273438 349.417969 109.023438 348.265625 110.921875 347.363281 C 112.835938 346.472656 114.914062 346 117.007812 345.667969 C 121.21875 345.097656 125.5 345.515625 129.613281 346.378906 C 137.851562 348.226562 145.539062 351.789062 152.640625 356.097656 C 166.914062 364.71875 179.105469 376.273438 189.527344 389.074219 C 199.859375 401.941406 208.59375 416.296875 214.027344 432.058594 C 216.746094 439.910156 218.609375 448.175781 218.6875 456.613281 C 218.664062 460.824219 218.171875 465.097656 216.726562 469.097656 C 215.960938 471.070312 215.0625 473.003906 213.789062 474.6875 C 212.507812 476.351562 211.007812 477.824219 209.289062 478.914062 C 212.113281 475.953125 213.722656 472.253906 214.367188 468.453125 C 215.007812 464.636719 214.953125 460.738281 214.367188 456.898438 C 213.855469 453.050781 212.941406 449.253906 211.75 445.535156 C 210.554688 441.816406 209.207031 438.136719 207.613281 434.554688 C 201.234375 420.203125 192.539062 406.894531 182.667969 394.613281 C 172.742188 382.371094 161.554688 371.074219 148.871094 361.820312 C 142.492188 357.285156 135.75 353.160156 128.441406 350.523438 C 124.804688 349.140625 121.003906 348.273438 117.140625 348.09375 C 113.285156 347.929688 109.328125 348.726562 105.84375 350.871094 " fill-opacity="1" fill-rule="nonzero"/><path fill="#c95022" d="M 125.472656 315.132812 C 128.84375 311.820312 133.734375 310.042969 138.578125 309.757812 C 143.460938 309.359375 148.320312 310.207031 153 311.40625 C 162.347656 314 171 318.425781 179.035156 323.617188 C 187.121094 328.761719 194.578125 334.800781 201.570312 341.28125 C 205.078125 344.515625 208.394531 347.941406 211.671875 351.402344 C 214.914062 354.894531 218 358.527344 221.03125 362.203125 C 223.992188 365.933594 226.882812 369.71875 229.625 373.617188 C 232.324219 377.542969 234.972656 381.511719 237.402344 385.617188 C 242.265625 393.820312 246.613281 402.371094 249.9375 411.363281 C 253.320312 420.308594 255.835938 429.699219 256.402344 439.386719 C 256.59375 444.210938 256.394531 449.144531 254.976562 453.835938 C 253.683594 458.511719 250.914062 462.917969 246.964844 465.511719 C 250.269531 462.132812 252.042969 457.769531 252.589844 453.3125 C 253.210938 448.851562 252.886719 444.304688 252.097656 439.851562 C 251.359375 435.390625 250.167969 430.996094 248.675781 426.695312 C 247.183594 422.398438 245.511719 418.148438 243.582031 414.007812 C 235.882812 397.429688 225.648438 382.039062 214.175781 367.742188 C 202.617188 353.503906 189.71875 340.269531 175.128906 329.253906 C 167.800781 323.832031 160.0625 318.847656 151.644531 315.496094 C 147.460938 313.792969 143.078125 312.523438 138.589844 312.191406 C 134.113281 311.792969 129.46875 312.609375 125.472656 315.132812 " fill-opacity="1" fill-rule="nonzero"/><path fill="#fccb2f" d="M 159.597656 432.503906 C 165.011719 432.589844 170.429688 432.175781 175.707031 431.363281 C 184.277344 430.039062 192.789062 427.234375 199.945312 422.242188 C 208.128906 416.53125 211.917969 409.0625 215.921875 400.226562 C 220.488281 390.148438 231.269531 387.167969 241.449219 386.496094 C 252.558594 385.757812 263.070312 386.414062 272.703125 379.644531 C 282.507812 372.757812 281.976562 360.34375 285.25 350.027344 C 288.875 338.59375 299.144531 332.628906 310.628906 331.164062 C 321.046875 329.839844 333.140625 332.214844 340.40625 340.34375 C 348.023438 348.859375 341.621094 359.089844 339.816406 368.433594 C 337.441406 380.707031 342.355469 392.847656 341.695312 405.140625 C 341.066406 416.855469 333.699219 426.265625 324.0625 432.304688 C 315.722656 437.53125 304.78125 441.695312 301.722656 452.011719 C 299.25 460.359375 301.421875 467.96875 296.511719 475.882812 C 292.402344 482.507812 285.703125 487.402344 282.164062 494.378906 C 279.34375 499.933594 279.433594 505.820312 281.210938 511.671875 C 283.855469 520.394531 289.328125 531.910156 280.882812 539.371094 C 276.929688 542.855469 270.835938 543.496094 266.175781 541.085938 C 261.105469 538.460938 259.316406 532.929688 259.371094 527.535156 C 259.4375 521.492188 262.273438 516.828125 263.492188 511.152344 C 265.132812 503.496094 263.082031 493.136719 258.039062 487.109375 C 252.257812 480.199219 242.136719 478.042969 233.6875 480.640625 C 211.355469 487.5 211.128906 516.890625 215.289062 535.703125 C 218.714844 551.199219 229.320312 566.945312 222.042969 583.027344 C 217.625 592.792969 207.429688 599.976562 196.683594 595.410156 C 189.113281 592.191406 185.203125 583.808594 184.007812 576.089844 C 181.421875 559.421875 193.3125 547.382812 195.167969 531.558594 C 196.261719 522.238281 193 512.035156 185.507812 506.097656 C 176.019531 498.574219 163.011719 497.925781 152.558594 492.011719 C 140.582031 485.230469 135.046875 471.851562 131.40625 459.234375 C 126.472656 442.136719 118.265625 441.640625 115.402344 431.914062 C 113.8125 426.5 113.859375 422.679688 117.847656 420.851562 C 121.140625 419.339844 127.191406 423.832031 129.59375 425.25 C 138.765625 430.667969 149.085938 432.34375 159.597656 432.503906 " fill-opacity="1" fill-rule="nonzero"/><path fill="#f5ba24" d="M 258.039062 483.546875 C 252.257812 476.636719 242.136719 474.480469 233.6875 477.078125 C 217.371094 482.089844 212.859375 499.128906 213.234375 515.28125 C 213.589844 500.257812 218.570312 485.285156 233.6875 480.640625 C 242.136719 478.042969 252.257812 480.199219 258.039062 487.109375 C 261.578125 491.339844 263.636719 497.699219 263.984375 503.765625 C 264.398438 496.75 262.28125 488.617188 258.039062 483.546875 " fill-opacity="1" fill-rule="nonzero"/><path fill="#f5ba24" d="M 222.042969 579.464844 C 217.625 589.226562 207.429688 596.414062 196.683594 591.847656 C 189.113281 588.628906 185.203125 580.246094 184.007812 572.523438 C 183.855469 571.542969 183.761719 570.578125 183.703125 569.625 C 183.589844 571.710938 183.660156 573.855469 184.007812 576.089844 C 185.203125 583.808594 189.113281 592.191406 196.683594 595.410156 C 207.429688 599.976562 217.625 592.792969 222.042969 583.027344 C 224.113281 578.449219 224.734375 573.90625 224.484375 569.378906 C 224.300781 572.726562 223.570312 576.089844 222.042969 579.464844 " fill-opacity="1" fill-rule="nonzero"/><path fill="#f5ba24" d="M 280.882812 535.808594 C 276.929688 539.296875 270.835938 539.9375 266.175781 537.523438 C 261.792969 535.253906 259.871094 530.816406 259.460938 526.171875 C 259.425781 526.625 259.378906 527.070312 259.371094 527.535156 C 259.316406 532.929688 261.105469 538.460938 266.175781 541.085938 C 270.835938 543.496094 276.929688 542.855469 280.882812 539.371094 C 284.800781 535.910156 285.707031 531.574219 285.304688 527.050781 C 284.996094 530.257812 283.753906 533.269531 280.882812 535.808594 " fill-opacity="1" fill-rule="nonzero"/><path fill="#f9ad21" d="M 131.40625 459.234375 C 132.042969 461.433594 132.738281 463.652344 133.511719 465.859375 C 140.484375 470.230469 149.425781 468.757812 155.363281 463.472656 C 156.609375 462.359375 157.839844 461.152344 159.304688 460.324219 C 163.207031 458.113281 168.007812 458.867188 171.746094 461.050781 C 175.984375 463.527344 179.101562 468.296875 182.082031 472.097656 C 187.546875 479.0625 192.570312 486.570312 195.878906 494.824219 C 198.601562 501.605469 199.6875 508.941406 200.097656 516.203125 C 200.507812 523.519531 200.480469 531.257812 198.503906 538.496094 C 196.570312 545.59375 191.265625 553.3125 194.898438 560.769531 C 198.039062 567.21875 206.570312 568.6875 212.027344 564.21875 C 218.839844 558.636719 216.652344 548.679688 214.40625 541.414062 C 213.1875 537.480469 211.644531 533.65625 210.371094 529.742188 C 207.855469 522.003906 207.234375 513.769531 207.1875 505.679688 C 207.121094 495.15625 207.628906 483.6875 212.292969 473.824219 C 217.464844 462.898438 230.277344 456.925781 233.335938 444.96875 C 235.050781 438.253906 231.808594 431.332031 235.078125 424.671875 C 239.425781 415.800781 252.902344 411.703125 260.398438 419.214844 C 264.167969 422.996094 265.085938 428.078125 264.125 433.183594 C 263.230469 437.914062 260.457031 442.566406 260.269531 447.40625 C 260.003906 454.238281 266.257812 461.757812 273.136719 462.335938 C 282.0625 463.085938 285.816406 452.554688 284.542969 445.242188 C 282.8125 435.316406 276.210938 426.863281 274.925781 416.8125 C 273.914062 408.9375 277.164062 400.03125 285.941406 399.027344 C 292.601562 398.265625 299.191406 401.414062 305.699219 402.292969 C 308.453125 402.664062 311.625 402.820312 314.09375 401.464844 C 317.039062 399.84375 318.316406 396.488281 318.414062 393.253906 C 318.550781 388.757812 317.261719 384.28125 316.171875 379.960938 C 314.984375 375.242188 313.804688 370.503906 313.667969 365.617188 C 313.378906 355.441406 319.921875 345.554688 330.5 344.273438 C 334.925781 343.734375 339.257812 344.554688 343.496094 345.917969 C 342.960938 344 342.007812 342.128906 340.40625 340.34375 C 333.140625 332.214844 321.046875 329.839844 310.628906 331.164062 C 299.144531 332.628906 288.875 338.59375 285.25 350.027344 C 281.976562 360.34375 282.507812 372.757812 272.703125 379.644531 C 263.070312 386.414062 252.558594 385.757812 241.449219 386.496094 C 231.269531 387.167969 220.488281 390.148438 215.921875 400.226562 C 211.917969 409.0625 208.128906 416.53125 199.945312 422.242188 C 192.789062 427.234375 184.277344 430.039062 175.707031 431.363281 C 170.429688 432.175781 165.011719 432.589844 159.597656 432.503906 C 149.085938 432.34375 138.765625 430.667969 129.59375 425.25 C 127.191406 423.832031 121.140625 419.339844 117.847656 420.851562 C 113.859375 422.679688 113.8125 426.5 115.402344 431.914062 C 118.265625 441.640625 126.472656 442.136719 131.40625 459.234375 " fill-opacity="1" fill-rule="nonzero"/><path fill="#fce588" d="M 218.351562 574.011719 C 219.730469 579.617188 214.972656 584.550781 210.523438 586.5625 C 207.636719 587.867188 203.984375 588.761719 200.671875 587.699219 C 198.46875 586.992188 196.644531 584.769531 196.664062 582.457031 C 196.6875 579.128906 200.175781 578.269531 202.902344 577.894531 C 204.625 577.664062 206.40625 577.230469 207.902344 576.34375 C 209.648438 575.3125 210.464844 573.585938 211.4375 571.871094 C 212.011719 570.863281 212.757812 569.875 214.074219 569.878906 C 216.117188 569.882812 217.898438 572.175781 218.351562 574.011719 " fill-opacity="1" fill-rule="nonzero"/><path fill="#fce588" d="M 281.601562 524.4375 C 283.636719 527.523438 281.828125 531.527344 279.578125 533.695312 C 278.113281 535.105469 276.105469 536.429688 273.878906 536.5 C 272.394531 536.550781 270.816406 535.597656 270.332031 534.199219 C 269.632812 532.183594 271.550781 530.917969 273.113281 530.105469 C 274.105469 529.59375 275.085938 528.953125 275.800781 528.09375 C 276.632812 527.097656 276.753906 525.882812 276.96875 524.636719 C 277.101562 523.902344 277.335938 523.148438 278.132812 522.863281 C 279.367188 522.429688 280.933594 523.429688 281.601562 524.4375 " fill-opacity="1" fill-rule="nonzero"/><path fill="#fce588" d="M 285.175781 476.722656 C 292.375 472.679688 293.933594 464.972656 294.597656 457.335938 C 294.949219 453.300781 295.246094 449.203125 296.703125 445.382812 C 298.242188 441.339844 301.046875 438.667969 304.847656 436.722656 C 312.015625 433.050781 319.707031 430.503906 325.46875 424.589844 C 327.945312 422.046875 330 418.90625 330.910156 415.449219 C 332.042969 411.140625 331.480469 406.625 330.597656 402.332031 C 329.578125 397.355469 328.027344 392.324219 328.378906 387.183594 C 328.65625 383.167969 330.507812 377.914062 334.558594 376.28125 C 335.191406 376.027344 336.542969 375.476562 336.03125 374.632812 C 335.578125 373.894531 333.21875 374.605469 332.710938 374.8125 C 325.425781 377.75 322.683594 384.929688 323.34375 392.390625 C 324.136719 401.390625 328.929688 410.683594 324.632812 419.496094 C 320.835938 427.265625 312.519531 430.902344 305.0625 434.25 C 301.632812 435.789062 298.183594 437.46875 295.480469 440.144531 C 292.832031 442.753906 291.351562 446.257812 290.574219 449.84375 C 288.8125 457.96875 290.804688 470.914062 282.15625 475.773438 C 281.46875 476.15625 280.65625 476.769531 281.589844 477.316406 C 282.445312 477.824219 284.414062 477.148438 285.175781 476.722656 " fill-opacity="1" fill-rule="nonzero"/><path fill="#fab848" d="M 106.65625 360.390625 C 109.925781 354.945312 118.023438 354.394531 123.515625 355.953125 C 127.078125 356.964844 130.980469 358.84375 133.03125 362.046875 C 134.390625 364.175781 134.207031 367.242188 132.34375 369.070312 C 129.664062 371.707031 125.933594 369.910156 123.253906 368.269531 C 121.5625 367.234375 119.660156 366.3125 117.644531 365.957031 C 115.292969 365.539062 113.207031 366.332031 110.984375 367.007812 C 109.675781 367.40625 108.238281 367.660156 107.089844 366.722656 C 105.308594 365.265625 105.582031 362.171875 106.65625 360.390625 " fill-opacity="1" fill-rule="nonzero"/><path fill="#fab848" d="M 129.007812 323.121094 C 132.277344 317.675781 140.375 317.125 145.867188 318.683594 C 149.433594 319.699219 153.335938 321.574219 155.382812 324.777344 C 156.742188 326.90625 156.558594 329.976562 154.699219 331.804688 C 152.015625 334.4375 148.285156 332.640625 145.605469 331 C 143.914062 329.964844 142.011719 329.042969 140 328.6875 C 137.644531 328.269531 135.558594 329.066406 133.335938 329.738281 C 132.03125 330.136719 130.59375 330.394531 129.445312 329.453125 C 127.664062 327.996094 127.9375 324.902344 129.007812 323.121094 " fill-opacity="1" fill-rule="nonzero"/><path fill="#fab848" d="M 157.285156 298.015625 C 160.554688 292.574219 168.652344 292.019531 174.144531 293.578125 C 177.710938 294.589844 181.613281 296.472656 183.660156 299.675781 C 185.019531 301.800781 184.835938 304.871094 182.976562 306.699219 C 180.292969 309.332031 176.5625 307.539062 173.882812 305.898438 C 172.191406 304.863281 170.289062 303.9375 168.273438 303.582031 C 165.921875 303.164062 163.835938 303.957031 161.617188 304.632812 C 160.308594 305.03125 158.871094 305.289062 157.722656 304.347656 C 155.941406 302.890625 156.214844 299.796875 157.285156 298.015625 " fill-opacity="1" fill-rule="nonzero"/><path fill="#fab848" d="M 193.21875 281.230469 C 196.492188 275.78125 204.589844 275.230469 210.078125 276.789062 C 213.648438 277.804688 217.546875 279.679688 219.597656 282.886719 C 220.957031 285.011719 220.773438 288.082031 218.910156 289.910156 C 216.230469 292.542969 212.496094 290.75 209.820312 289.109375 C 208.128906 288.074219 206.222656 287.152344 204.210938 286.792969 C 201.859375 286.375 199.773438 287.171875 197.550781 287.84375 C 196.242188 288.242188 194.804688 288.5 193.65625 287.5625 C 191.875 286.105469 192.148438 283.011719 193.21875 281.230469 " fill-opacity="1" fill-rule="nonzero"/><path fill="#fab848" d="M 222.503906 264.730469 C 225.8125 260.710938 232.4375 261.238281 236.699219 263.164062 C 239.464844 264.414062 242.398438 266.40625 243.671875 269.25 C 244.519531 271.132812 244 273.601562 242.273438 274.855469 C 239.785156 276.667969 236.976562 274.765625 235.003906 273.113281 C 233.757812 272.070312 232.328125 271.09375 230.738281 270.5625 C 228.882812 269.941406 227.097656 270.335938 225.214844 270.613281 C 224.109375 270.777344 222.914062 270.8125 222.097656 269.914062 C 220.828125 268.519531 221.421875 266.046875 222.503906 264.730469 " fill-opacity="1" fill-rule="nonzero"/><path fill="#fab848" d="M 258.453125 255.679688 C 261.121094 252.4375 266.464844 252.859375 269.898438 254.414062 C 272.128906 255.425781 274.496094 257.027344 275.523438 259.320312 C 276.207031 260.84375 275.789062 262.832031 274.394531 263.84375 C 272.386719 265.304688 270.125 263.769531 268.53125 262.4375 C 267.527344 261.59375 266.375 260.804688 265.09375 260.378906 C 263.597656 259.882812 262.15625 260.195312 260.640625 260.421875 C 259.746094 260.550781 258.78125 260.582031 258.121094 259.855469 C 257.101562 258.734375 257.578125 256.738281 258.453125 255.679688 " fill-opacity="1" fill-rule="nonzero"/></svg>