<svg xmlns="http://www.w3.org/2000/svg" xmlns:xlink="http://www.w3.org/1999/xlink" width="1000" zoomAndPan="magnify" viewBox="0 0 750 599.999999" height="800" preserveAspectRatio="xMidYMid meet" version="1.0"><defs><clipPath id="888baed3fc"><path d="M 708 102.308594 L 750 102.308594 L 750 145 L 708 145 Z M 708 102.308594 " clip-rule="nonzero"/></clipPath><clipPath id="18f5d2d8a8"><path d="M 708 220 L 750 220 L 750 262.726562 L 708 262.726562 Z M 708 220 " clip-rule="nonzero"/></clipPath><clipPath id="72c723192b"><path d="M 471 455.226562 L 513.335938 455.226562 L 513.335938 497.765625 L 471 497.765625 Z M 471 455.226562 " clip-rule="nonzero"/></clipPath><clipPath id="bf04857554"><path d="M 590 455.226562 L 633 455.226562 L 633 497.765625 L 590 497.765625 Z M 590 455.226562 " clip-rule="nonzero"/></clipPath><clipPath id="f491583abf"><path d="M 708 455.226562 L 750 455.226562 L 750 497.765625 L 708 497.765625 Z M 708 455.226562 " clip-rule="nonzero"/></clipPath><clipPath id="c73b59ec32"><path d="M 353 455.226562 L 396 455.226562 L 396 497.765625 L 353 497.765625 Z M 353 455.226562 " clip-rule="nonzero"/></clipPath><clipPath id="b0e704a82d"><path d="M 235 455.226562 L 278 455.226562 L 278 497.765625 L 235 497.765625 Z M 235 455.226562 " clip-rule="nonzero"/></clipPath><clipPath id="0dab048e74"><path d="M 117.011719 455.226562 L 160 455.226562 L 160 497.765625 L 117.011719 497.765625 Z M 117.011719 455.226562 " clip-rule="nonzero"/></clipPath><clipPath id="bff9754142"><path d="M 0 455.226562 L 43 455.226562 L 43 497.765625 L 0 497.765625 Z M 0 455.226562 " clip-rule="nonzero"/></clipPath></defs><path fill="#fbc118" d="M 513.269531 123.320312 C 513.269531 111.738281 503.847656 102.308594 492.257812 102.308594 C 480.679688 102.308594 471.25 111.738281 471.25 123.320312 C 471.25 134.902344 480.679688 144.328125 492.257812 144.328125 C 503.847656 144.328125 513.269531 134.902344 513.269531 123.320312 " fill-opacity="1" fill-rule="nonzero"/><path fill="#fbc118" d="M 632.25 123.320312 C 632.25 111.738281 622.828125 102.308594 611.238281 102.308594 C 599.65625 102.308594 590.234375 111.738281 590.234375 123.320312 C 590.234375 134.902344 599.65625 144.328125 611.238281 144.328125 C 622.828125 144.328125 632.25 134.902344 632.25 123.320312 " fill-opacity="1" fill-rule="nonzero"/><g clip-path="url(#888baed3fc)"><path fill="#fbc118" d="M 750.0625 123.320312 C 750.0625 111.738281 740.632812 102.308594 729.054688 102.308594 C 717.472656 102.308594 708.050781 111.738281 708.050781 123.320312 C 708.050781 134.902344 717.472656 144.328125 729.054688 144.328125 C 740.632812 144.328125 750.0625 134.902344 750.0625 123.320312 " fill-opacity="1" fill-rule="nonzero"/></g><path fill="#fbc118" d="M 374.445312 102.308594 C 362.863281 102.308594 353.441406 111.738281 353.441406 123.320312 C 353.441406 134.902344 362.863281 144.328125 374.445312 144.328125 C 386.035156 144.328125 395.457031 134.902344 395.457031 123.320312 C 395.457031 111.738281 386.035156 102.308594 374.445312 102.308594 " fill-opacity="1" fill-rule="nonzero"/><path fill="#fbc118" d="M 256.632812 102.308594 C 245.050781 102.308594 235.628906 111.738281 235.628906 123.320312 C 235.628906 134.902344 245.050781 144.328125 256.632812 144.328125 C 268.21875 144.328125 277.640625 134.902344 277.640625 123.320312 C 277.640625 111.738281 268.21875 102.308594 256.632812 102.308594 " fill-opacity="1" fill-rule="nonzero"/><path fill="#fbc118" d="M 513.269531 241.132812 C 513.269531 229.550781 503.847656 220.121094 492.257812 220.121094 C 480.679688 220.121094 471.25 229.550781 471.25 241.132812 C 471.25 252.714844 480.679688 262.144531 492.257812 262.144531 C 503.847656 262.144531 513.269531 252.714844 513.269531 241.132812 " fill-opacity="1" fill-rule="nonzero"/><path fill="#fbc118" d="M 632.25 241.132812 C 632.25 229.550781 622.828125 220.121094 611.238281 220.121094 C 599.65625 220.121094 590.234375 229.550781 590.234375 241.132812 C 590.234375 252.714844 599.65625 262.144531 611.238281 262.144531 C 622.828125 262.144531 632.25 252.714844 632.25 241.132812 " fill-opacity="1" fill-rule="nonzero"/><g clip-path="url(#18f5d2d8a8)"><path fill="#fbc118" d="M 750.0625 241.132812 C 750.0625 229.550781 740.632812 220.121094 729.054688 220.121094 C 717.472656 220.121094 708.050781 229.550781 708.050781 241.132812 C 708.050781 252.714844 717.472656 262.144531 729.054688 262.144531 C 740.632812 262.144531 750.0625 252.714844 750.0625 241.132812 " fill-opacity="1" fill-rule="nonzero"/></g><path fill="#fbc118" d="M 374.445312 220.121094 C 362.863281 220.121094 353.441406 229.550781 353.441406 241.132812 C 353.441406 252.714844 362.863281 262.144531 374.445312 262.144531 C 386.035156 262.144531 395.457031 252.714844 395.457031 241.132812 C 395.457031 229.550781 386.035156 220.121094 374.445312 220.121094 " fill-opacity="1" fill-rule="nonzero"/><path fill="#fbc118" d="M 256.632812 220.121094 C 245.050781 220.121094 235.628906 229.550781 235.628906 241.132812 C 235.628906 252.714844 245.050781 262.144531 256.632812 262.144531 C 268.21875 262.144531 277.640625 252.714844 277.640625 241.132812 C 277.640625 229.550781 268.21875 220.121094 256.632812 220.121094 " fill-opacity="1" fill-rule="nonzero"/><path fill="#fbc118" d="M 513.269531 358.949219 C 513.269531 347.359375 503.847656 337.9375 492.257812 337.9375 C 480.679688 337.9375 471.25 347.359375 471.25 358.949219 C 471.25 370.527344 480.679688 379.949219 492.257812 379.949219 C 503.847656 379.949219 513.269531 370.527344 513.269531 358.949219 " fill-opacity="1" fill-rule="nonzero"/><path fill="#fbc118" d="M 632.25 358.949219 C 632.25 347.359375 622.828125 337.9375 611.238281 337.9375 C 599.65625 337.9375 590.234375 347.359375 590.234375 358.949219 C 590.234375 370.527344 599.65625 379.949219 611.238281 379.949219 C 622.828125 379.949219 632.25 370.527344 632.25 358.949219 " fill-opacity="1" fill-rule="nonzero"/><path fill="#fbc118" d="M 750.0625 358.949219 C 750.0625 347.359375 740.632812 337.9375 729.054688 337.9375 C 717.472656 337.9375 708.050781 347.359375 708.050781 358.949219 C 708.050781 370.527344 717.472656 379.949219 729.054688 379.949219 C 740.632812 379.949219 750.0625 370.527344 750.0625 358.949219 " fill-opacity="1" fill-rule="nonzero"/><path fill="#fbc118" d="M 374.445312 337.9375 C 362.863281 337.9375 353.441406 347.359375 353.441406 358.949219 C 353.441406 370.527344 362.863281 379.949219 374.445312 379.949219 C 386.035156 379.949219 395.457031 370.527344 395.457031 358.949219 C 395.457031 347.359375 386.035156 337.9375 374.445312 337.9375 " fill-opacity="1" fill-rule="nonzero"/><path fill="#fbc118" d="M 256.632812 337.9375 C 245.050781 337.9375 235.628906 347.359375 235.628906 358.949219 C 235.628906 370.527344 245.050781 379.949219 256.632812 379.949219 C 268.21875 379.949219 277.640625 370.527344 277.640625 358.949219 C 277.640625 347.359375 268.21875 337.9375 256.632812 337.9375 " fill-opacity="1" fill-rule="nonzero"/><g clip-path="url(#72c723192b)"><path fill="#fbc118" d="M 513.269531 476.753906 C 513.269531 465.171875 503.847656 455.75 492.257812 455.75 C 480.679688 455.75 471.25 465.171875 471.25 476.753906 C 471.25 488.34375 480.679688 497.765625 492.257812 497.765625 C 503.847656 497.765625 513.269531 488.34375 513.269531 476.753906 " fill-opacity="1" fill-rule="nonzero"/></g><g clip-path="url(#bf04857554)"><path fill="#fbc118" d="M 632.25 476.753906 C 632.25 465.171875 622.828125 455.75 611.238281 455.75 C 599.65625 455.75 590.234375 465.171875 590.234375 476.753906 C 590.234375 488.34375 599.65625 497.765625 611.238281 497.765625 C 622.828125 497.765625 632.25 488.34375 632.25 476.753906 " fill-opacity="1" fill-rule="nonzero"/></g><g clip-path="url(#f491583abf)"><path fill="#fbc118" d="M 750.0625 476.753906 C 750.0625 465.171875 740.632812 455.75 729.054688 455.75 C 717.472656 455.75 708.050781 465.171875 708.050781 476.753906 C 708.050781 488.34375 717.472656 497.765625 729.054688 497.765625 C 740.632812 497.765625 750.0625 488.34375 750.0625 476.753906 " fill-opacity="1" fill-rule="nonzero"/></g><g clip-path="url(#c73b59ec32)"><path fill="#fbc118" d="M 374.445312 455.75 C 362.863281 455.75 353.441406 465.171875 353.441406 476.753906 C 353.441406 488.34375 362.863281 497.765625 374.445312 497.765625 C 386.035156 497.765625 395.457031 488.34375 395.457031 476.753906 C 395.457031 465.171875 386.035156 455.75 374.445312 455.75 " fill-opacity="1" fill-rule="nonzero"/></g><g clip-path="url(#b0e704a82d)"><path fill="#fbc118" d="M 256.632812 455.75 C 245.050781 455.75 235.628906 465.171875 235.628906 476.753906 C 235.628906 488.34375 245.050781 497.765625 256.632812 497.765625 C 268.21875 497.765625 277.640625 488.34375 277.640625 476.753906 C 277.640625 465.171875 268.21875 455.75 256.632812 455.75 " fill-opacity="1" fill-rule="nonzero"/></g><path fill="#fbc118" d="M 159.828125 123.320312 C 159.828125 111.738281 150.40625 102.308594 138.824219 102.308594 C 127.234375 102.308594 117.8125 111.738281 117.8125 123.320312 C 117.8125 134.902344 127.234375 144.328125 138.824219 144.328125 C 150.40625 144.328125 159.828125 134.902344 159.828125 123.320312 " fill-opacity="1" fill-rule="nonzero"/><path fill="#fbc118" d="M 21.011719 102.308594 C 9.421875 102.308594 0 111.738281 0 123.320312 C 0 134.902344 9.421875 144.328125 21.011719 144.328125 C 32.59375 144.328125 42.015625 134.902344 42.015625 123.320312 C 42.015625 111.738281 32.59375 102.308594 21.011719 102.308594 " fill-opacity="1" fill-rule="nonzero"/><path fill="#fbc118" d="M 159.828125 241.132812 C 159.828125 229.550781 150.40625 220.121094 138.824219 220.121094 C 127.234375 220.121094 117.8125 229.550781 117.8125 241.132812 C 117.8125 252.714844 127.234375 262.144531 138.824219 262.144531 C 150.40625 262.144531 159.828125 252.714844 159.828125 241.132812 " fill-opacity="1" fill-rule="nonzero"/><path fill="#fbc118" d="M 21.011719 220.121094 C 9.421875 220.121094 0 229.550781 0 241.132812 C 0 252.714844 9.421875 262.144531 21.011719 262.144531 C 32.59375 262.144531 42.015625 252.714844 42.015625 241.132812 C 42.015625 229.550781 32.59375 220.121094 21.011719 220.121094 " fill-opacity="1" fill-rule="nonzero"/><path fill="#fbc118" d="M 159.828125 358.949219 C 159.828125 347.359375 150.40625 337.9375 138.824219 337.9375 C 127.234375 337.9375 117.8125 347.359375 117.8125 358.949219 C 117.8125 370.527344 127.234375 379.949219 138.824219 379.949219 C 150.40625 379.949219 159.828125 370.527344 159.828125 358.949219 " fill-opacity="1" fill-rule="nonzero"/><path fill="#fbc118" d="M 21.011719 337.9375 C 9.421875 337.9375 0 347.359375 0 358.949219 C 0 370.527344 9.421875 379.949219 21.011719 379.949219 C 32.59375 379.949219 42.015625 370.527344 42.015625 358.949219 C 42.015625 347.359375 32.59375 337.9375 21.011719 337.9375 " fill-opacity="1" fill-rule="nonzero"/><g clip-path="url(#0dab048e74)"><path fill="#fbc118" d="M 159.828125 476.753906 C 159.828125 465.171875 150.40625 455.75 138.824219 455.75 C 127.234375 455.75 117.8125 465.171875 117.8125 476.753906 C 117.8125 488.34375 127.234375 497.765625 138.824219 497.765625 C 150.40625 497.765625 159.828125 488.34375 159.828125 476.753906 " fill-opacity="1" fill-rule="nonzero"/></g><g clip-path="url(#bff9754142)"><path fill="#fbc118" d="M 21.011719 455.75 C 9.421875 455.75 0 465.171875 0 476.753906 C 0 488.34375 9.421875 497.765625 21.011719 497.765625 C 32.59375 497.765625 42.015625 488.34375 42.015625 476.753906 C 42.015625 465.171875 32.59375 455.75 21.011719 455.75 " fill-opacity="1" fill-rule="nonzero"/></g></svg>