<svg width="1728" height="60" viewBox="0 0 1728 60" fill="none" xmlns="http://www.w3.org/2000/svg">
    <path d="M1728 60H0V0C0 0 33.3339 21.2454 57 29.5C103.164 45.602 133.901 45.2715 182 36.5C216.333 30.2389 231.293 9.66444 266 6C287.576 3.72192 299.807 8.16365 321.5 8.5C361.554 9.12103 384.523 -2.30722 424 4.5C461.342 10.9392 476.664 37.4122 514.5 39.5C551.763 41.5562 569.723 13.7159 607 15.5C650.435 17.5788 666.102 61.7427 709.5 59C740.695 57.0285 753.173 36.0689 783.5 28.5C812.456 21.2733 830.508 27.5808 859.5 20.5C879.776 15.5479 889.384 6.26202 910 3C929.48 -0.0823517 939.5 -1 960.5 3.5C981.5 8 1068.77 47.7368 1139.5 39C1181.85 33.7689 1200.87 7.39946 1243.5 5.5C1261.29 4.70729 1289 8.5 1289 8.5L1373.5 2C1431 3.5 1434.29 38.4675 1477.5 40C1516.12 41.3696 1532 11 1573.5 16C1615 21 1636.82 62.7797 1682 58C1700.67 56.0247 1728 44 1728 44V60Z" fill="#FBF9F5"/>
</svg>
